<?xml version="1.0" standalone="no"?><!DOCTYPE svg PUBLIC "-//W3C//DTD SVG 1.1//EN" "http://www.w3.org/Graphics/SVG/1.1/DTD/svg11.dtd"><svg t="1742562284248" class="icon" viewBox="0 0 1024 1024" version="1.1" xmlns="http://www.w3.org/2000/svg" p-id="986" xmlns:xlink="http://www.w3.org/1999/xlink" width="200" height="200"><path d="M608.256 565.3504m-179.0976 0a179.0976 179.0976 0 1 0 358.1952 0 179.0976 179.0976 0 1 0-358.1952 0Z" fill="#FFBE0A" p-id="987"></path><path d="M635.5968 921.6a132.5568 132.5568 0 0 1-117.4016-69.9392l-116.3264-210.4832-231.1168-103.1168a119.6544 119.6544 0 0 1 7.1168-221.44l552.96-205.3632a135.3216 135.3216 0 0 1 178.176 160.5632l-141.1584 547.84a132.8128 132.8128 0 0 1-113.9712 100.4544 144.6912 144.6912 0 0 1-18.2784 1.4848zM202.8544 384a47.9744 47.9744 0 0 0-2.8672 88.7808l242.0736 108.032a35.84 35.84 0 0 1 16.7424 15.36l122.112 220.8768a63.6928 63.6928 0 0 0 117.3504-14.9504l141.1072-547.84a63.6416 63.6416 0 0 0-83.8144-75.52L202.8032 384z" fill="#34332E" p-id="988"></path><path d="M532.48 529.6128a35.84 35.84 0 0 1-25.6-60.9792l152.064-154.4704a35.84 35.84 0 1 1 51.2 50.2784L558.08 518.912a35.84 35.84 0 0 1-25.6 10.7008z" fill="#34332E" p-id="989"></path></svg>